# xmcd
#
# Track frame offsets:
#	150
#	16352
#	28974
#	46904
#	63355
#	77858
#	96133
#	111506
#	129619
#	144403
#	156722
#	173330
#	187419
#	204194
#	217480
#	230373
#	243833
#	255888
#	274869
#	286385
#
# Disc length: 4025 seconds
#
# Revision: 0
# Processed by: cddbd v1.5.2PL0 Copyright (c) Steve Scherf et al.
# Submitted via: audiograbber 1.83.01
#
DISCID=2a0fb714
DTITLE=Diverse - Winter Zauberland
DYEAR=2006
DGENRE=Schlager
TTITLE0=Rom lag im Schnee, Lys Assia
TTITLE1=Einmal im Leben, Duo Treibsand
TTITLE2=Stunden vor dem Kamin, Schwarzwaldfamilie Seitz
TTITLE3=Die zehn Gebote der Liebe, Fernando Express
TTITLE4=Es war eine schöne Zeit, Bert Beel
TTITLE5=Il pensiero solo a te, Sandra Mo and Valentino
TTITLE6=Ein Märchen aus Eis, Francine Jordi
TTITLE7=Wenn dein Herz die Tränen besiegt, Duo Treibsand
TTITLE8=Wir brauchen Geld, Schwarzwaldfamilie Seitz
TTITLE9=Hätt ich nochmal die Wahl, Sandra Mo and Valentino
TTITLE10=Die Sonne von Capri, Fernando Express
TTITLE11=Weil es dich gibt, Bert Beel
TTITLE12=Seelenverwandtschaft, Mareike Hauser
TTITLE13=Eine Schneeeballschlacht, Orig. Südtiroler Spitzbuam
TTITLE14=O mein Papa, Lys Assia,
TTITLE15=Romantik im Schnee, Steffi and Bert
TTITLE16=Schlittenfahrt, Bartl Gensbichler und seine Schilehrermusi
TTITLE17=Der Schimmel, Christian Steffen and Ural Kosakenchor
TTITLE18=Hoamat, Die Mayrhofner
TTITLE19=Heimat deine Sterne, Ulla Norden, Dirk Schiefen, Rainer Nitschke
EXTD=
EXTT0=
EXTT1=
EXTT2=
EXTT3=
EXTT4=
EXTT5=
EXTT6=
EXTT7=
EXTT8=
EXTT9=
EXTT10=
EXTT11=
EXTT12=
EXTT13=
EXTT14=
EXTT15=
EXTT16=
EXTT17=
EXTT18=
EXTT19=
PLAYORDER=
